HIERARCHY
ROOT hip
{
	OFFSET 0.000000 0.000000 0.000000 
	CHANNELS 6 Xposition Yposition Zposition Xrotation Zrotation Yrotation
	JOINT abdomen
	{
		OFFSET 0.000000 3.402643 0.000000 
		CHANNELS 3 Xrotation Zrotation Yrotation
		JOINT chest
		{
			OFFSET 0.000000 8.438565 -0.680529 
			CHANNELS 3 Xrotation Zrotation Yrotation
			JOINT neck
			{
				OFFSET 0.000000 10.207942 -0.272212 
				CHANNELS 3 Xrotation Zrotation Yrotation
				JOINT head
				{
					OFFSET 0.000000 3.130431 0.000000 
					CHANNELS 3 Xrotation Zrotation Yrotation
					End Site
					{
						OFFSET 0.000000 3.130435 0.000000 
					}
				}
			}
			JOINT lCollar
			{
				OFFSET 3.470700 6.669187 -0.816635 
				CHANNELS 3 Yrotation Zrotation Xrotation
				JOINT lShldr
				{
					OFFSET 3.198488 0.000000 0.000000 
					CHANNELS 3 Zrotation Yrotation Xrotation
					JOINT lForeArm
					{
						OFFSET 10.139888 0.000000 0.000000 
						CHANNELS 3 Yrotation Zrotation Xrotation
						JOINT lHand
						{
							OFFSET 8.370511 0.000000 0.000000 
							CHANNELS 3 Zrotation Yrotation Xrotation
							End Site
							{
								OFFSET 4.083176 0.000000 0.000000 
							}
						}
					}
				}
			}
			JOINT rCollar
			{
				OFFSET -3.470700 6.669187 -0.816635 
				CHANNELS 3 Yrotation Zrotation Xrotation
				JOINT rShldr
				{
					OFFSET -3.198488 0.000000 0.000000 
					CHANNELS 3 Zrotation Yrotation Xrotation
					JOINT rForeArm
					{
						OFFSET -10.139888 0.000000 0.000000 
						CHANNELS 3 Yrotation Zrotation Xrotation
						JOINT rHand
						{
							OFFSET -8.370511 0.000000 0.000000 
							CHANNELS 3 Zrotation Yrotation Xrotation
							End Site
							{
								OFFSET -4.083176 0.000000 0.000000 
							}
						}
					}
				}
			}
		}
	}
	JOINT lThigh
	{
		OFFSET 5.308129 -1.633274 1.361059 
		CHANNELS 3 Xrotation Zrotation Yrotation
		JOINT lShin
		{
			OFFSET -2.041588 -20.007561 0.000000 
			CHANNELS 3 Xrotation Zrotation Yrotation
			JOINT lFoot
			{
				OFFSET 0.000000 -19.190928 -1.224953 
				CHANNELS 3 Xrotation Yrotation Zrotation
				End Site
				{
					OFFSET 0.000000 -2.449906 4.627600 
				}
			}
		}
	}
	JOINT rThigh
	{
		OFFSET -5.308129 -1.633274 1.361059 
		CHANNELS 3 Xrotation Zrotation Yrotation
		JOINT rShin
		{
			OFFSET 2.041588 -20.007561 0.000000 
			CHANNELS 3 Xrotation Zrotation Yrotation
			JOINT rFoot
			{
				OFFSET 0.000000 -19.190928 -1.224953 
				CHANNELS 3 Xrotation Yrotation Zrotation
				End Site
				{
					OFFSET 0.000000 -2.449906 4.627600 
				}
			}
		}
	}
}
MOTION
Frames: 13
Frame Time: 0.066667
-0.353230 50.595005 4.245998 5.733130 -2.228300 0.793735 21.398046 3.276130 -0.719365 0.671526 0.813599 -7.803840 -15.785500 0.494383 -0.189765 -4.148760 -0.614598 5.806450 -23.712999 -9.782260 -0.125641 -57.472301 -21.885700 8.178200 -38.580502 0.255116 6.518800 -14.619800 -16.106899 0.323774 -2.975390 6.827730 -0.425671 63.174500 -24.590099 -1.496370 12.210200 0.121067 -4.058920 1.938370 2.376200 0.088103 9.472340 2.459470 0.838379 52.275002 -4.228460 -3.003310 10.221007 6.455080 -3.633810 -35.252300 2.014290 -5.895270 42.973846 1.266040 -0.629826 -6.620919 -2.311670 -5.161650 
-0.185030 51.539696 4.245998 8.263820 -1.391420 -0.947405 19.754946 2.066540 0.647076 0.652827 0.335809 -3.359620 -15.817100 0.245203 -0.075272 -5.446380 -0.117639 2.871730 -12.453100 -13.536300 -0.299824 -58.879101 -15.372200 8.607470 -32.666500 0.251909 9.040160 -6.802220 -13.488500 0.273413 4.632130 9.737720 -5.112400 63.653599 -19.190001 -5.725300 11.811000 0.121076 -6.093560 5.353100 3.153490 0.069464 -29.602814 3.501090 3.124940 80.701797 -4.056740 -4.337200 8.690948 10.497200 -4.490940 -33.191502 1.982320 -5.745740 36.481293 0.637944 0.347588 -9.963120 -0.392682 -7.397400 
-0.006285 53.228962 4.245998 8.823090 0.309503 -3.111220 17.239435 0.267238 0.063227 1.927000 -0.936983 1.546440 -15.925000 0.032248 0.029089 -4.924580 0.396464 1.029840 -2.788760 -10.953800 0.037725 -63.156799 -3.090640 4.137390 -21.768600 0.248715 3.377370 -5.467570 -8.584110 0.255998 12.559700 4.197990 -10.626900 66.183296 -13.473800 -10.494000 14.944700 0.121084 -4.035160 10.588300 -2.199170 -0.301637 -73.118767 3.335540 3.885000 95.728302 -2.145430 -0.527041 6.336637 11.515300 -3.340780 -24.318001 0.298936 -5.295780 29.287838 1.198200 0.690604 -12.209805 2.077590 -8.232450 
0.083619 54.165874 4.245998 8.712900 1.162850 -4.412290 14.996393 -0.784786 -0.107721 4.898780 -1.277270 6.920330 -16.020700 0.286071 0.067769 -3.810570 0.325494 -2.060760 2.222370 -4.129660 2.668190 -65.796097 10.113000 0.186718 -14.540700 0.245544 0.058782 -10.052500 -3.788950 0.235788 18.359100 -8.972100 -13.053600 69.751900 -3.762550 -8.456260 28.860901 0.121092 -1.235480 10.963800 0.929386 0.239072 -86.372330 3.538260 2.875830 83.840477 -2.294610 2.384960 2.605760 2.697690 0.680740 -7.513750 0.069301 -4.552970 22.023886 1.017110 -0.310762 -12.246320 3.957850 -7.881730 
0.013633 53.782028 4.245998 8.572080 0.827747 -4.025360 17.071135 -1.117810 -0.421332 2.491700 -1.267880 10.347800 -16.362000 0.905435 0.183449 -3.988520 0.699229 -5.467190 4.507370 -1.014460 3.938750 -63.984299 18.149401 -0.787601 -9.716610 0.242404 -3.065460 -9.884180 -0.174689 0.354684 19.497499 -12.045400 -12.650400 69.320396 5.216230 -6.483370 36.403500 0.121100 -0.037381 12.800600 0.949428 0.135388 -86.920036 1.804670 2.969840 74.461349 1.369300 1.920460 -6.881870 0.200197 -0.398142 -9.877950 -0.950746 -5.994450 25.996300 0.343208 1.820110 -14.033881 4.355250 -6.282330 
-0.037496 52.326996 4.245998 9.072460 0.564206 -3.503650 18.567154 -1.225200 -0.657650 -0.442093 -1.281620 12.154600 -17.041401 1.686940 0.390339 -4.625250 0.526829 -7.432850 4.815070 0.566383 2.121640 -63.997601 23.996799 -6.900260 -4.734220 0.239307 -4.662030 -10.103400 1.499980 0.428318 18.429001 -10.201700 -10.241800 65.569397 10.714700 0.826909 42.388302 0.121108 0.244239 7.993720 8.746840 0.491488 -88.277832 -0.336300 2.430310 71.881439 2.807750 0.310516 -19.846001 3.652540 -0.942950 -4.637580 -1.857420 -6.171940 35.786999 0.443122 2.712810 -14.348837 3.647680 -4.646720 
0.013786 51.022892 4.245998 9.877520 0.809004 -3.045280 17.252064 -1.280280 -0.362797 -0.521544 -1.223000 10.328000 -17.875601 2.520510 0.650690 -5.436900 -0.077437 -6.371620 3.293420 0.077561 -0.044088 -65.638100 25.425301 -16.585899 -0.668284 0.236260 -5.860690 -12.569600 4.539620 0.355071 19.281000 -4.843430 -6.442770 61.198601 13.182900 6.120580 46.825401 0.121116 1.859170 9.088790 17.977501 1.100700 -88.303032 -2.046830 2.292090 68.220978 3.273050 -0.185217 -21.082779 5.776030 -0.176726 -3.871070 -3.061770 -7.025670 42.597599 -0.086699 3.152780 -12.585600 -0.240334 -1.862390 
-0.023042 50.672184 4.245998 10.149800 0.592305 -2.126460 15.547263 -0.646654 -0.624893 1.031740 -0.814831 8.162650 -18.376400 2.384060 1.337190 -5.121870 0.046276 -4.327660 0.701356 -4.538280 -0.510781 -68.226303 22.244200 -14.707000 1.504430 0.233278 -6.979940 -9.880080 9.860740 0.277670 16.336201 4.241620 -3.679060 60.306702 12.905700 11.011900 41.675098 0.121123 3.839710 3.982330 15.596700 0.482609 -79.815643 -0.084289 0.795918 63.670567 -2.954900 -1.706170 -21.395679 4.845080 2.905500 -25.042463 -2.044140 -5.879280 52.538174 -0.071065 2.814180 4.781461 -7.712520 1.359980 
-0.232487 51.424255 4.245998 10.166100 0.300037 -0.552329 14.844833 -0.002763 -0.641150 2.741730 -0.562413 5.540810 -18.613300 2.464140 0.991091 -2.980300 -0.621658 -3.258530 -2.622780 -6.936410 -0.888443 -69.038200 15.906200 -9.904250 -3.939470 0.230373 -7.294590 -9.022320 12.396800 0.126381 9.245270 7.485110 -2.107590 63.231998 8.534410 9.973700 27.284500 0.121131 3.919270 2.064080 5.902680 0.418099 -61.075577 -0.088296 -0.122961 57.193550 -4.073330 -1.663830 -20.225430 1.958870 3.550670 -48.173580 -2.179930 -4.510130 68.495598 1.147440 3.230060 10.014590 -12.845000 3.573240 
-0.409167 52.939175 4.245998 9.737730 -0.582358 0.807569 14.632534 0.304578 -0.368406 3.529030 0.426995 -1.169300 -18.504601 2.639600 0.204093 -0.470059 -0.814193 1.989720 -7.590160 -5.704910 -2.300490 -66.897400 2.479730 -5.536790 -8.095940 0.227564 -4.881760 -9.354130 14.426000 -0.106667 2.652410 6.387330 -1.001740 61.221199 -0.179053 -0.306112 15.736400 0.121138 1.155890 7.295470 2.288430 0.074458 -24.657200 0.758722 -0.045183 44.415119 -5.036800 -1.784560 -18.810184 -0.752793 5.030750 -70.623375 -2.812560 -4.988320 79.333626 1.030840 3.118280 -0.207896 -12.607500 1.793260 
-0.443883 54.036938 4.245998 8.303300 -1.472550 1.488570 16.078695 0.928663 0.055161 3.844150 1.970560 -5.623320 -18.091600 2.483340 -0.522663 0.033644 -1.314750 5.201840 -12.267200 -3.171890 -3.470040 -64.500298 -8.810670 -3.930230 -11.010500 0.224873 -2.613230 -8.484980 10.017800 -0.365303 -2.162620 4.103550 -0.454798 59.877102 -10.967200 -10.896200 12.350400 0.121145 0.125433 10.203600 -1.331540 0.047539 -17.092600 1.506350 0.453491 36.066219 -4.642940 -1.829380 -19.718573 -1.851940 5.847000 -78.650299 -3.286810 -6.740590 77.854218 0.355920 2.472740 -12.494162 -9.675920 -3.872850 
-0.486679 54.155781 4.245998 6.346380 -1.502960 1.814300 19.089445 1.531300 -0.677102 1.419550 1.287220 -8.499020 -16.876900 2.079360 -0.573902 -0.427507 -2.566890 7.558490 -16.005899 -2.587160 -2.764270 -62.905300 -18.718000 -2.748380 -10.777900 0.222337 1.185250 -8.426670 1.962470 -0.222621 -5.098350 1.966040 -0.606140 57.955502 -21.925200 -11.202000 11.482300 0.121151 1.128420 10.884400 -2.041150 0.119170 -11.035000 2.452730 0.210415 30.557600 -5.455530 -2.367650 -19.013247 -1.121010 4.778720 -78.554001 -3.136740 -7.635350 77.275108 -1.522280 -0.148455 -14.674289 -6.742110 -4.872070 
-0.508956 53.270969 4.245998 4.628890 -1.140970 2.369120 21.716547 1.386910 -0.953605 -1.297970 2.205830 -10.492600 -15.598700 1.293150 -0.466829 -1.168870 -3.758590 9.508930 -20.614599 -3.101620 -1.426690 -60.991901 -23.206800 -1.026320 -14.688800 0.220023 3.969810 -9.469900 -5.299920 -0.058256 -7.078390 0.503468 -0.612728 59.669601 -28.550100 -6.197140 11.242100 0.121157 4.639990 10.252600 -0.704666 0.093600 -2.771230 2.161130 0.340730 36.104599 -4.210620 -1.547650 -11.563311 -1.061430 2.202990 -64.544350 -1.080170 -9.154830 76.683243 -6.194000 -3.655080 -11.436500 -5.987750 -0.170345 
